PathFileType	4	(X/Y/Z)	C:/Users/beibeiliu/ov580/test_trc\sequence.11_training_dense_left.trc
DataRate	CameraRate	NumFrames	NumMarkers	Units	OrigDataRate	OrigDataStartFrame	OrigNumFrames
120	120	19	19	mm	120	1	100
Frame#	Time	ThumbCMC			ThumbMCP			ThumbIP			ThumbTip			IndexMCP			IndexPIP			IndexTip			MiddleMCP			MiddlePIP			MiddleTip			RingMCP			RingPIP			RingTip			PinkyMCP			PinkyPIP			PinkyTip			BackHand1			BackHand2			BackHand3	
		X0	Y0	Z0	X1	Y1	Z1	X2	Y2	Z2	X3	Y3	Z3	X4	Y4	Z4	X5	Y5	Z5	X6	Y6	Z6	X7	Y7	Z7	X8	Y8	Z8	X9	Y9	Z9	X10	Y10	Z10	X11	Y11	Z11	X12	Y12	Z12	X13	Y13	Z13	X14	Y14	Z14	X15	Y15	Z15	X16	Y16	Z16	X17	Y17	Z17	X18	Y18	Z18	
0	0	-131.918	13.1644	46.8686	-118.493	-2.67035	26.103	-110.204	-11.5456	4.1077	-111.927	-23.639	-19.1136	-141.109	11.1066	-21.3565	-134.196	-2.62	-41.4549	-127.667	-28.3192	-56.721	-160.753	6.98536	-28.3171	-159.596	-6.53735	-51.7163	-157.384	-29.4433	-68.1188	-178.368	2.22501	-23.7597	-178.604	-7.36812	-42.1621	-176.167	-23.8759	-58.7991	-199.002	-4.69447	-9.36337	-199.687	-12.3656	-24.4554	-195.412	-23.3771	-44.1778	-181.972	20.9809	18.5656	-184.162	27.0887	48.9132	-158.508	30.8596	32.2631	
1	0.00833333	-134.462	13.3239	44.887	-118.512	-1.14307	25.2341	-116.355	-10.5829	4.93189	-113.132	-23.4319	-17.0179	-142.58	11.066	-22.5609	-136.392	-5.27469	-44.4278	-130.438	-29.9724	-55.3089	-161.047	6.65893	-30.4283	-159.959	-4.60516	-49.5956	-158.216	-29.9923	-67.2486	-183.981	2.09866	-21.36	-178.567	-8.15202	-41.7872	-175.549	-27.7232	-61.7471	-197.388	-3.83355	-5.25493	-201.04	-15.8976	-28.1572	-199.939	-24.3314	-42.7758	-185.352	20.075	22.5724	-184.309	28.3908	46.3063	-158.585	30.4809	30.8148	
2	0.0166667	-135.084	12.7134	46.3862	-120.608	-1.62005	27.7456	-113.751	-12.7874	1.63463	-113.886	-22.9583	-12.626	-137.902	9.63006	-25.6881	-137.413	-4.708	-42.6664	-127.418	-26.3182	-53.7689	-164.263	6.87749	-27.568	-160.512	-6.70095	-50.2542	-155.805	-28.697	-66.4776	-179.569	2.76432	-19.714	-178.745	-12.2524	-45.1234	-176.881	-28.8523	-60.3757	-199.661	-4.88099	-6.66587	-201.696	-16.7818	-25.6842	-198.133	-27.2495	-41.2395	-186.678	19.8869	21.7138	-183.932	26.3271	46.0704	-160.944	29.8869	33.2452	
3	0.025	-131.756	12.1675	40.9377	-121.552	-3.37714	24.0479	-115.129	-13.8541	3.18293	-112.261	-24.9832	-12.1594	-140.976	7.70609	-25.7992	-133.188	-7.93752	-45.563	-133.171	-27.8361	-53.6881	-162.095	6.16672	-26.8277	-160.495	-9.86965	-52.257	-157.997	-32.0561	-66.7561	-179.268	0.751901	-22.8455	-179.752	-13.1431	-44.5331	-175.718	-25.7467	-57.9109	-195.032	-5.54964	-6.05304	-198.148	-15.4147	-26.869	-199.527	-26.8926	-42.9994	-184.6	17.4648	18.4651	-187.675	24.4899	44.1924	-159.488	29.1817	29.5292	
4	0.0333333	-136.112	11.9639	44.2228	-120.04	-3.21395	21.9598	-111.956	-13.8595	4.01744	-110.545	-26.1604	-14.8603	-138.395	10.2059	-23.4514	-135.037	-4.3337	-42.967	-128.034	-26.6379	-54.6203	-159.688	5.77497	-33.0166	-157.104	-11.314	-53.7596	-155.685	-29.8423	-66.9668	-183.439	-0.929746	-21.9687	-178.234	-12.8669	-46.501	-176.201	-29.7568	-60.9129	-200.225	-7.94529	-8.13798	-196.976	-14.7862	-25.9455	-199.605	-27.1136	-43.588	-185.717	19.1043	18.3596	-182.21	26.4451	42.3462	-160.053	28.2964	29.0931	
5	0.0416667	-135.381	12.2431	39.6834	-120.687	-2.05444	22.2945	-114.933	-12.882	-0.0674644	-111.043	-25.8626	-16.8066	-137.602	11.2307	-22.7084	-137.026	-7.53422	-45.5991	-128.469	-26.1957	-54.7782	-163.494	4.90054	-32.047	-158.456	-8.14581	-52.9685	-158.203	-31.2536	-67.3908	-184.028	-0.326776	-22.5694	-181.141	-13.3758	-46.5107	-178.113	-27.6684	-59.394	-198.436	-5.78011	-8.87838	-197.655	-13.6482	-24.9335	-199.009	-28.4266	-42.0762	-182.569	20.2771	21.5324	-184.461	25.4112	44.0959	-156.933	29.4177	30.1947	
6	0.05	-133.555	14.0543	39.9626	-118.846	-1.30949	21.094	-116.133	-12.2652	4.27329	-113.821	-23.2078	-15.5176	-141.981	11.0336	-27.5339	-134.854	-1.11233	-43.2849	-131.41	-23.829	-55.4751	-165.053	7.21364	-32.7047	-159.183	-3.71862	-51.8638	-156.011	-29.5054	-69.3523	-180.048	3.63149	-20.9856	-180.315	-9.74524	-44.5169	-172.795	-28.0552	-62.1482	-201.031	-5.45331	-8.96091	-199.573	-16.7432	-29.7559	-197.033	-29.3992	-43.7202	-181.873	19.7209	22.249	-186.762	26.1262	45.9483	-161.369	31.6806	31.4661	
7	0.0583333	-134.334	16.1925	44.3409	-119.941	0.385349	23.4765	-113.007	-9.34535	-0.950826	-111.435	-21.502	-18.2044	-142.233	17.3016	-26.7752	-134.864	1.39314	-47.5369	-133.268	-17.5865	-58.0894	-163.91	12.6704	-32.6798	-160.438	0.616633	-53.2921	-151.432	-26.3861	-69.817	-180.129	7.65774	-22.741	-181.259	-8.1249	-45.546	-172.485	-26.5948	-56.8802	-201.269	-1.90685	-12.2908	-198.105	-12.0779	-28.6605	-188.733	-32.5805	-42.5258	-187.837	20.8363	22.2009	-187.135	27.0356	44.3994	-159.375	35.1068	31.0346	
8	0.0666667	-135.103	18.2777	41.0888	-122.159	2.8663	19.7098	-118.624	-6.20772	-0.0404855	-118.303	-18.4942	-22.2613	-143.569	25.1675	-24.2048	-137.611	10.0861	-49.5273	-128.31	-11.5161	-61.2926	-164.313	20.9737	-29.3108	-162.542	5.31353	-56.6079	-153.744	-17.7088	-68.8066	-181.783	11.95	-24.7972	-178.237	-4.68459	-45.3155	-162.619	-27.5017	-49.2449	-200.201	1.9676	-8.99495	-194.365	-10.116	-29.1256	-179.176	-31.9404	-33.5304	-185.618	24.3875	20.7651	-188.374	28.6977	47.8126	-161.565	36.011	32.7763	
9	0.075	-137.124	20.7254	41.9134	-119.013	3.53686	18.6044	-115.747	-6.076	-0.683725	-123.59	-17.9906	-19.3236	-141.93	31.3607	-25.1152	-140.291	21.3781	-47.0829	-131.827	0.627434	-63.5755	-162.239	27.3173	-31.976	-158.258	15.5644	-56.5953	-152.012	-9.06129	-69.469	-176.63	16.0452	-27.3094	-174.823	-4.30097	-43.8579	-158.849	-26.9393	-36.0533	-193.062	5.67716	-11.1636	-185.179	-14.4792	-27.9356	-167.645	-27.9704	-18.4898	-188.23	27.9768	20.3284	-188.051	32.5323	43.1337	-160.711	40.2961	33.495	
10	0.0833333	-134.878	22.8591	38.4758	-122.081	3.7322	17.0439	-122.079	-8.09425	-4.76019	-131.026	-21.1915	-24.5414	-143.369	34.0536	-26.5393	-136.259	26.8808	-48.2485	-130.318	6.72523	-67.1274	-163.131	29.7022	-34.464	-158.888	19.4028	-56.5059	-154.857	-5.46282	-71.7533	-179.697	11.4647	-26.8253	-168.191	-9.94129	-38.9146	-153.148	-26.691	-18.2611	-189.405	3.05861	-13.4939	-176.144	-18.7326	-21.7978	-162.083	-23.4673	-1.99542	-187.935	29.6648	18.9923	-187.094	32.8545	41.0351	-163.029	42.5276	31.2933	
11	0.0916667	-137.484	20.8661	40.4964	-119.626	0.902696	16.7517	-123.016	-10.9848	-5.38867	-139.128	-21.6466	-20.7765	-139.695	35.5205	-26.9223	-133.289	28.4414	-50.1608	-128.623	15.926	-66.994	-162.222	29.8428	-31.9557	-160.613	19.3254	-58.9665	-153.117	-3.40638	-77.6379	-175.391	8.55991	-25.1153	-160.834	-13.7857	-31.8336	-153.45	-25.4864	-7.251	-182.357	-3.11644	-16.8464	-170.362	-20.248	-14.4693	-160.719	-20.0546	12.3167	-186.855	31.3297	15.6174	-188.916	33.4169	41.9131	-158.446	41.5706	29.2847	
12	0.1	-135.961	19.8073	36.0628	-124.779	-1.74765	16.5022	-124.66	-16.1458	-5.30997	-141.43	-27.3858	-22.096	-135.956	34.3058	-27.4066	-128.513	29.9434	-48.3399	-124.442	20.7319	-66.5932	-158.899	28.1143	-33.9509	-159.355	18.1076	-59.7515	-157.241	2.92867	-78.6023	-173.492	2.46321	-25.717	-155.18	-20.3641	-23.5684	-152.307	-22.6398	3.24876	-184.499	-6.83789	-12.1599	-168.68	-24.5907	-7.77257	-158.183	-16.2232	18.6034	-180.059	29.0691	14.2229	-184.376	32.36	44.0775	-158.612	39.0225	31.2002	
13	0.108333	-132.444	14.0185	41.0337	-120.396	-8.05936	15.2232	-126.443	-20.3215	-6.60878	-146.168	-31.3691	-20.3226	-137.27	29.3866	-23.2626	-128.831	28.0399	-44.2152	-121.114	20.7137	-69.0555	-159.321	24.4632	-34.5664	-157.632	17.2724	-57.9639	-157.277	6.45602	-78.4806	-168.695	-3.01779	-24.9172	-157.83	-24.867	-20.6926	-151.997	-24.218	6.95379	-178.417	-11.8572	-12.2915	-165.618	-28.3836	1.20133	-157.763	-16.6218	21.1553	-178.794	25.7978	15.034	-181.998	31.6849	42.3696	-156.589	38.0197	33.7888	
14	0.116667	-130.213	9.9049	42.2687	-120.523	-12.9989	20.4078	-126.755	-26.3301	-2.05629	-147.161	-34.5901	-15.9796	-135.421	23.6338	-24.1281	-128.484	21.5646	-43.4549	-120.074	16.9238	-65.7592	-157.674	18.6003	-29.2661	-157.618	13.0608	-53.762	-161.319	2.39569	-80.965	-168.988	-8.39446	-21.1722	-158.22	-32.3168	-14.5738	-152.521	-28.4865	10.2732	-182.808	-19.3354	-8.28819	-169.341	-34.1926	2.08731	-159.518	-20.7801	27.8892	-182.487	22.3751	19.192	-179.579	25.914	43.8312	-156.103	32.325	32.4975	
15	0.125	-131.917	2.1072	44.4062	-124.489	-20.2409	20.7578	-131.46	-32.9949	-3.16657	-148.414	-43.4055	-12.8306	-133.541	14.412	-20.0163	-124.699	12.1392	-40.2054	-121.474	9.26485	-65.6921	-161.629	9.07194	-26.2633	-158.474	3.52506	-53.6277	-162.643	-2.12796	-74.5154	-172.571	-15.867	-17.1243	-160.336	-39.2386	-11.3858	-156.606	-35.8919	16.0389	-185.892	-26.0038	-3.87536	-169.52	-39.7083	6.94188	-159.603	-26.0124	28.5546	-179.998	15.1569	18.597	-180.69	21.1439	46.2129	-154.179	27.2605	31.5541	
16	0.133333	-133.402	-2.74621	47.2281	-126.692	-26.6007	19.6404	-134.946	-37.7235	1.68282	-156.783	-46.189	-13.1394	-136.651	7.2454	-17.2364	-129.83	2.96186	-41.8858	-123.634	2.41355	-60.9112	-164.898	1.42898	-23.5918	-165.361	-4.14313	-49.2665	-167.553	-8.82367	-71.3914	-172.176	-22.1507	-15.2628	-165.516	-47.4721	-6.44602	-160.084	-39.4818	22.2113	-187.298	-30.5838	-1.20401	-174.276	-44.6678	9.55319	-164.318	-32.0395	29.3496	-182.845	12.1393	23.7997	-181.117	19.0487	45.4719	-157.107	21.6051	31.9108	
17	0.141667	-133.887	-4.63004	44.4288	-130.32	-27.8419	23.4739	-139.051	-39.3312	2.31382	-160.012	-47.6984	-13.3781	-136.184	7.04247	-16.7479	-133.024	2.97693	-42.5921	-126.916	1.51489	-61.3396	-166.515	2.69029	-28.6022	-166.176	-2.37375	-48.7578	-173.062	-7.79775	-75.6753	-179.478	-21.463	-16.0544	-172.281	-46.0044	-9.30023	-161.107	-39.9439	18.2161	-191.324	-24.6212	-1.69232	-179.099	-44.1913	11.1696	-168.865	-34.4374	28.2941	-181.958	14.3226	21.1969	-183.784	19.467	45.5409	-159.154	21.0516	33.6898	
18	0.15	-136.198	-2.54053	41.2076	-135.389	-25.0288	22.053	-145.962	-38.4949	-2.75778	-166.668	-42.0903	-11.2626	-142.481	8.72049	-18.264	-136.976	6.01317	-42.0883	-135.375	2.91977	-64.4088	-170.583	8.33604	-25.9788	-176.563	1.34052	-52.5761	-180.73	-3.53157	-71.1074	-184.836	-15.6095	-14.4885	-178.642	-43.8313	-6.63264	-167.377	-38.3674	21.3533	-197.488	-20.3162	-0.500718	-182.478	-39.2283	9.51716	-170.771	-31.547	26.7545	-183.901	18.1302	23.3717	-185.428	25.0381	48.8921	-161.735	22.0947	34.4266	
